<svg xmlns="http://www.w3.org/2000/svg" viewBox="0 0 127 127" width="127" height="127"><defs></defs><g>
<g>
	<g transform="matrix(1,0,0,1,-12.205702429,-100.584029275)">
		<path d="" fill="#2b31ce"/>
	</g>
	<g transform="matrix(1,0,0,1,-12.205702429,-100.584029275)">
		<g transform="matrix(1,0,0,1,83.472389665,57.457088655)">
			<g>
				<path d="M32.69461046472876,85.84454573534623 C33.9522048407066,86.26046840214751 35.14262710181836,86.18387203133092 36.23548902358034,85.74852297235171 C39.198766299732185,84.56809170166048 40.315537689163136,81.25093539656922 39.5346097285057,76.18319602885863 C40.648287674000144,76.55876973896223 41.83541105643161,76.7600573423517 43.060367263580346,76.7600573423517 C49.15278427358034,76.7600573423517 54.10169569358034,71.8111459223517 54.10169569358034,65.71872891235171 C54.10169569358034,59.626311912351696 49.152784283580345,54.6773985723517 43.060367263580346,54.6773985723517 C38.83582433830156,54.6773985723517 35.16109884189575,57.05692240862243 33.30492686810908,60.54723270381372 C30.696824889582928,56.78647136160458 27.603408055277853,54.564999024798226 24.332443983580347,55.8680007323517 C22.891119761647417,56.4421589808081 21.940290664570853,57.49245917303553 21.39091002773266,58.88592228386836 C19.08128278444488,56.668308466459536 16.51116321272002,55.5281924444626 13.847588703580342,56.5892377623517 C11.801973631519843,57.40411698290031 10.68637011888579,59.125326536040006 10.211450843610947,61.33793930547891 C7.878596613958223,58.86137233489663 5.314687100135259,57.54585021479765 2.65871285358034,58.603870052351695 C-0.7264657498553788,59.9523688903592 -1.3157670677839803,63.991749471522326 -0.7640878910480495,68.49229532980046 C-4.5064977039173755,65.62415408466498 -9.182926730924379,63.4167573478371 -15.352291456419657,61.4708579923517 C-15.352291456419657,61.4708579923517 -17.784815456419658,60.703607702351704 -17.784815456419658,60.703607702351704 C-17.784815456419658,60.703607702351704 -19.50662097641966,62.5854237823517 -19.50662097641966,62.5854237823517 C-19.50662097641966,62.5854237823517 -21.544703250791088,64.81290880708092 -21.544703250791088,64.81290880708092 C-21.544703250791095,64.81290880708092 -36.69335141541698,71.64877197326169 -36.69335141541698,71.64877197326169 C-42.468753704125916,63.952492588118645 -45.08686252538663,62.78483071300663 -46.83936085641966,62.426366052351696 C-53.48991221641966,61.2074217223517 -58.62708937641966,62.403669922351696 -62.01309758641966,64.1225840123517 C-70.14296672641966,68.2497289323517 -67.42653062641966,74.6002253423517 -62.93176778641966,74.6002253423517 C-60.663722036419664,74.6002253423517 -58.345231656419664,73.5954408123517 -56.25488960641966,76.74478454235171 C-55.99078074154445,77.14269510627051 -55.729283709945406,77.56020413660588 -55.47117476457022,77.99396028482779 C-60.02919196126906,77.6068588372162 -63.990616517573336,79.27155336331579 -66.50126337641966,80.5958537523517 C-66.50126337641966,80.5958537523517 -68.63507347641966,81.72138263235169 -68.63507347641966,81.72138263235169 C-68.63507347641966,81.72138263235169 -68.63507016641967,84.1338421223517 -68.63507016641967,84.1338421223517 C-68.63502498641967,117.1193369923517 -46.84817238641966,136.2874490223517 -46.37834401641966,136.6973002823517 C-46.37834401641966,136.6973002823517 -44.77686576641966,138.0943378323517 -44.77686576641966,138.0943378323517 C-44.77686576641966,138.0943378323517 -42.72278394641966,137.54918245235172 -42.72278394641966,137.54918245235172 C-37.43882934833953,136.1468155963097 -34.245519118904376,132.09041494142323 -32.36976165542507,128.73512654074636 C-31.590897496204015,130.08393877420002 -30.71342297703572,131.23336178707237 -29.611864092188455,132.11302883979312 C-30.185265176682073,136.1482709277924 -30.647878900021958,139.12872242104126 -31.012700336622956,141.32179916756303 C-40.37586506809649,144.44301007191797 -42.203390482344226,149.7518039214401 -41.55988256641966,152.6624534323517 C-40.08463258641966,159.3350899323517 -23.37203384641966,159.5764826623517 -19.682365736419662,159.5764826623517 C-16.03531348641966,159.5764826623517 0.5379135035803415,159.2908147723517 3.922068023580337,153.9358678323517 C6.751892574250348,149.45803970675667 2.239479210957086,140.44293091475384 -12.603118881497103,139.09260724593216 C-12.603118881506148,139.0926072459389 -12.7991184836957,132.14578476665082 -12.7991184836957,132.14578476665082 C-8.549191118215887,129.40749928571432 -8.012378590126971,123.67529175836718 -8.393980888262305,117.53993243986363 C-8.39398088827788,117.53993243985677 -0.942334866013212,114.26723914230146 -0.942334866013212,114.26723914230146 C-0.942334866013212,114.26723914230146 0.23414792358033765,114.7923037223517 0.23414792358033765,114.7923037223517 C0.23414792358033765,114.7923037223517 3.3505314135803417,116.1831465123517 3.3505314135803417,116.1831465123517 C3.3505314135803417,116.1831465123517 5.214784713580343,113.3246767423517 5.214784713580343,113.3246767423517 C8.922843768982148,107.63908949502219 10.93804182848831,102.6588739473182 11.470155631258876,97.36730768792319 C13.911154501718272,100.08996923623563 16.563647522307022,101.50763440697105 19.31328732358034,100.4123018623517 C22.01757340489371,99.33503804370655 22.93985517624226,96.54630504788153 22.91815172107718,93.16744940825063 C24.785054342375886,94.43561246748683 26.7648158680272,94.89494892245312 28.786087913580346,94.0897656423517 C31.828272613347508,92.87790020440562 32.80629997901434,89.66569401391224 32.69461046472876,85.84454573534623 Z" fill="#21410f"/>
			</g>
			<g>
				<path d="M-19.268413863470442,117.94710339313295 C-19.379139266302474,123.98428143268373 -20.57211717157591,123.81735028033998 -22.407345137884505,124.00790203815248 C-22.407345137884505,124.00790203815248 -23.237972579290755,124.00790203815248 -23.237972579290755,124.00790203815248 C-24.106937728216536,123.85858715778139 -24.51460679559935,123.06160534625795 -25.063579879095442,120.49228466754701 C-25.063579879095442,120.49228466754701 -19.268413863470442,117.94710339313295 -19.268413863470442,117.94710339313295 C-19.268413863470442,117.94710339313295 -19.268413863470442,117.94710339313295 -19.268413863470442,117.94710339313295 ZM-30.697944960882552,122.96684826617982 C-28.728130660345442,127.60650433307435 -27.577827773382552,129.3322199702814 -25.25606950311888,129.8501643062189 C-26.301788649847396,137.42618359332826 -27.027477584173567,141.86932171588685 -27.49602540521849,144.45864666705873 C-36.431759200384505,146.7372492671564 -37.90753968744505,150.65306652789857 -37.654198012640364,151.79895581012514 C-37.32012971430052,153.30996502643373 -30.551578841497786,155.5764826655939 -19.68236573724974,155.5764826655939 C-8.813148818304427,155.5764826655939 -0.5932505944274737,153.5932825923517 0.5407063147522138,151.79895581012514 C1.67465559453737,150.00462902789857 -2.05123551874388,142.92175854450014 -16.496673903753646,142.92175854450014 C-16.496673903753646,142.92175854450014 -16.87398179559935,129.54881848102357 -16.87398179559935,129.54881848102357 C-13.354927382757552,128.73039807086732 -11.609188399603255,126.04480541950014 -12.550438247015364,115.6731165767267 C-12.570545516302474,115.45158947711732 -12.595051131536849,115.23688305621889 -12.623817763616927,115.02885998492982 C-12.623817763616927,115.02885998492982 -0.9293330529235675,109.89275158649232 -0.9293330529235675,109.89275158649232 C-0.9293330529235675,109.89275158649232 1.8643604895569013,111.13957775836732 1.8643604895569013,111.13957775836732 C7.605510391900651,102.33664120441225 8.766544022271745,95.80782879596498 6.5891300818420575,86.37952221637514 C6.5891300818420575,86.37952221637514 8.743045487115495,85.2788294673517 8.743045487115495,85.2788294673517 C12.154163040826433,92.55581082111146 15.944057144830339,97.44875897174623 17.832996048638933,96.69629086261537 C19.78373304815065,95.91920651202943 19.06661573858034,89.37641705280092 16.32840315313112,81.40256680255678 C16.32840315313112,81.40256680255678 18.40214125127565,80.34284771686342 18.40214125127565,80.34284771686342 C21.509166397760026,86.87213696246889 25.239009537408464,91.19706906085756 27.305797257135026,90.37375439410951 C29.453738846490495,89.51811398273256 29.082538284967058,83.38996304279115 26.601276077935808,76.15293301349428 C26.601276077935808,76.15293301349428 28.467296280572526,75.19935787921693 28.467296280572526,75.19935787921693 C30.71261183233034,79.69865978961732 33.2995411536194,82.61238278156068 34.755191483209245,82.03251446491029 C36.270686783502214,81.42881191974428 36.07277265996706,77.23246563678529 34.43509260625612,72.14970196491029 C34.43509260625612,72.14970196491029 37.820506729791276,70.41969097858217 37.820506729791276,70.41969097858217 C39.110118546197526,71.85589398151185 40.980777420709245,72.76005734210756 43.060367264459245,72.76005734210756 C46.94566694707643,72.76005734210756 50.101695694635026,69.60402859454896 50.101695694635026,65.71872891193178 C50.101695694635026,61.83342922931459 46.94566694707643,58.67739857440736 43.060367264459245,58.67739857440736 C39.17506758184206,58.67739857440736 36.019038834283464,61.83342922931459 36.019038834283464,65.71872891193178 C36.019038834283464,66.09836949115541 36.04916731328737,66.47104824786928 36.107173599908464,66.8344992518976 C36.107173599908464,66.8344992518976 32.856204666802995,68.02207554584291 32.856204666802995,68.02207554584291 C30.462512650201433,62.6308688045099 27.435046829888933,58.93775738483217 25.812732376763933,59.58401287799623 C24.208552994439714,60.22304524188783 24.524188675592058,64.88749684100893 26.435077347467058,70.36770619159486 C26.435077347467058,70.36770619159486 24.565051712701433,71.05082310443666 24.565051712701433,71.05082310443666 C21.395618118951433,64.12541569476869 17.469180741021745,59.45225323444154 15.327876724908464,60.30525006061342 C13.211543717095964,61.148300063665175 13.540759720513933,67.10982311969545 15.924235977838151,74.2073077083185 C15.924235977838151,74.2073077083185 13.79892317266237,74.98368252521303 13.79892317266237,74.98368252521303 C10.24893537969362,67.0269755244806 6.13388411016237,61.52521122699525 4.139003433892839,62.31988133197572 C2.1630360266662763,63.10701550250795 2.9243733069397138,69.8099287868097 5.75082746953737,77.92364681964662 C5.75082746953737,77.92364681964662 3.2386967322326825,78.84132565265443 3.2386967322326825,78.84132565265443 C-0.7685664513610675,72.47097576862123 -6.072773299505599,68.59199513202455 -16.555511794378646,65.28560055499818 C-16.555511794378646,65.28560055499818 -19.149212203314192,68.12033833270814 -19.149212203314192,68.12033833270814 C-19.149212203314192,68.12033833270814 -38.01335176019896,76.63282574420717 -38.01335176019896,76.63282574420717 C-40.86200746088255,72.60693539386537 -45.307356200506575,66.82254971271303 -47.64094384699095,66.34522618060853 C-59.04720529108275,64.25611485248353 -64.6350701668762,70.60022534137514 -62.93176778345335,70.60022534137514 C-61.2284654000305,70.60022534137514 -56.41390450983275,69.27207173114564 -52.92219193964232,74.53274334674623 C-51.413196883489974,76.80621899371889 -50.12158044367064,79.41952694659975 -49.14128335504759,81.6543291926935 C-49.14128335504759,81.6543291926935 -52.026642165472396,82.95635021930482 -52.026642165472396,82.95635021930482 C-56.32448991327513,81.05826748615053 -60.621650061895735,82.01686276202943 -64.6350701668762,84.13383663898256 C-64.63502725153197,115.46314038043764 -43.74886544733275,133.6830271602228 -43.74886544733275,133.6830271602228 C-40.0730002739929,132.70744885211732 -37.110416732122786,129.74486340289857 -34.86111863641966,124.79527844196107 C-34.86111863641966,124.79527844196107 -30.697944960882552,122.96684826617982 -30.697944960882552,122.96684826617982 C-30.697944960882552,122.96684826617982 -30.697944960882552,122.96684826617982 -30.697944960882552,122.96684826617982 Z" fill="#93a432"/>
			</g>
		</g>
		<g transform="matrix(1,0,0,1,83.472389665,57.457088655)">
			<g>
				<g>
					<path d="M-48.56619103937376,95.55473889117982 C-44.294456801702864,93.81909359699037 -39.41465409784544,95.87915600543764 -37.67900880365599,100.15089215045717 C-35.94335969476927,104.4226282954767 -38.003422103216536,109.30242718463685 -42.275156340887435,111.03807629352357 C-46.54689057855833,112.77372540241029 -51.426693282415755,110.71365917926576 -53.16234048395384,106.44192303424623 C-54.89798959284056,102.17019070392396 -52.83792527704466,97.29038800006654 -48.56619103937376,95.55473889117982 C-48.56619103937376,95.55473889117982 -48.56619103937376,95.55473889117982 -48.56619103937376,95.55473889117982 Z" fill="none" stroke="#ffffff" stroke-width="4"/>
				</g>
			</g>
			<g>
				<g>
					<path d="M-48.56619103937376,95.55473889117982 C-48.56619103937376,95.55473889117982 -42.275156340887435,111.03807629352357 -42.275156340887435,111.03807629352357" fill="none" stroke="#ffffff" stroke-width="4"/>
				</g>
			</g>
			<g>
				<g>
					<path d="M-37.67900880365599,100.15089215045717 C-37.67900880365599,100.15089215045717 -53.16234048395384,106.44192303424623 -53.16234048395384,106.44192303424623" fill="none" stroke="#ffffff" stroke-width="4"/>
				</g>
			</g>
			<g>
				<g>
					<path d="M-35.917667708685286,90.41551769977357 C-35.917667708685286,90.41551769977357 -3.438900313665755,85.32984722858217 -3.438900313665755,85.32984722858217 C-3.438900313665755,85.32984722858217 -28.893726668646224,105.60106457477357 -28.893726668646224,105.60106457477357 C-28.893726668646224,105.60106457477357 -35.917667708685286,90.41551769977357 -35.917667708685286,90.41551769977357 C-35.917667708685286,90.41551769977357 -35.917667708685286,90.41551769977357 -35.917667708685286,90.41551769977357 Z" fill="none" stroke="#ffffff" stroke-width="4"/>
				</g>
			</g>
			<g>
				<g>
					<path d="M-3.438900313665755,85.32984722858217 C-3.438900313665755,85.32984722858217 -32.405697188665755,97.76251019244935 -32.405697188665755,97.76251019244935" fill="none" stroke="#ffffff" stroke-width="3"/>
				</g>
			</g>
		</g>
	</g>
</g></g></svg>