<svg xmlns="http://www.w3.org/2000/svg" viewBox="0 0 64 64" width="64" height="64"><defs><clipPath id="artboard-17247542945602831285"><rect x="0" y="0" width="64" height="64"/></clipPath></defs><g>
<rect fill="#182558" x="0" y="0" width="64" height="64"/>
<g clip-path="url(#artboard-17247542945602831285)">
	<g transform="matrix(1,0,0,1,5.451362742,2.935349169)">
		<path d="M1.109172208439949,4.399351440404258 C1.109172208439949,4.399351440404258 1.109222208439948,12.31918060778544 1.109222208439948,12.31918060778544 C1.109222208439948,12.31918060778544 4.508314574396575,12.31918060778544 4.508314574396575,12.31918060778544 C4.508314574396575,12.31918060778544 15.816171854001983,32.82022157232515 15.816171854001983,32.82022157232515 C15.816171854001983,32.82022157232515 15.81617185400198,46.40031570694496 15.81617185400198,46.40031570694496 C15.81617185400198,46.40031570694496 12.30788582094467,46.40031570694495 12.30788582094467,46.40031570694495 C12.30788582094467,46.40031570694495 12.262347795477979,54.29084087103697 12.262347795477979,54.29084087103697 C12.262347795477979,54.29084087103697 30.805668883688767,54.29084087103696 30.805668883688767,54.29084087103696 C30.805668883688767,54.29084087103696 30.80566888368876,46.41368392471922 30.80566888368876,46.41368392471922 C30.80566888368876,46.41368392471922 27.241707290686577,46.44568200430092 27.241707290686577,46.44568200430092 C27.241707290686577,46.44568200430092 27.254956342394642,32.728675047820026 27.254956342394642,32.728675047820026 C27.254956342394642,32.728675047820026 38.60419206253007,12.325411837018253 38.60419206253007,12.325411837018253 C38.60419206253007,12.325411837018253 42.01374172487214,12.285445217299172 42.01374172487214,12.285445217299172 C42.01374172487214,12.285445217299172 42.01374172487213,4.399351440404259 42.01374172487213,4.399351440404259 L24.901953394890285,4.418599606106348 L25.008846645028676,12.334431541156658 C25.008846645028676,12.334431541156658 27.60342679140419,12.27610295507819 27.60342679140419,12.27610295507819 C27.60342679140419,12.27610295507819 21.548637258232297,24.151524760153595 21.548637258232297,24.151524760153595 C21.548637258232297,24.151524760153595 15.447617190977667,12.270593167751612 15.447617190977667,12.270593167751612 C15.447617190977667,12.270593167751612 18.08955139511413,12.18078104140872 18.08955139511413,12.18078104140872 C18.08955139511413,12.18078104140872 18.096830640801407,4.399351440404258 18.096830640801407,4.399351440404258" fill="#fefefe"/>
	</g>
	<g transform="matrix(1,0,0,1,5.451362742,2.935349169)">
		<path d="M9.542952797216278,5.526230208024861 C11.394209220187742,5.526230208024861 12.897986313042768,7.071019403412296 12.897986313042768,8.972764637919344 C12.897986313042768,10.874509872426392 11.394209220187742,12.419299067813826 9.542952797216278,12.419299067813826 C7.691696374244815,12.419299067813826 6.187919281389789,10.874509872426392 6.187919281389789,8.972764637919344 C6.187919281389789,7.071019403412296 7.691696374244815,5.526230208024861 9.542952797216278,5.526230208024861 Z" fill="none" stroke="#192659"/>
	</g>
	<g transform="matrix(1,0,0,1,5.451362742,2.935349169)">
		<path d="M11.187919281389783,10.972764637919342 C11.187919281389783,10.972764637919342 17.89798631304277,10.972764637919344 17.89798631304277,10.972764637919344" transform="matrix(1,0,0,1,-5,-2)" fill="none" stroke="#192659"/>
	</g>
	<g transform="matrix(1,0,0,1,5.451362742,2.935349169)">
		<path d="M11.187919281389783,10.972764637919342 C11.187919281389783,10.972764637919342 17.89798631304277,10.972764637919344 17.89798631304277,10.972764637919344" transform="matrix(0,1,-1,0,20.515717435,-5.570188159)" fill="none" stroke="#192659"/>
	</g>
	<g transform="matrix(1,0,0,1,5.451362742,2.935349169)">
		<path d="M33.700384970499016,5.617731122092781 C35.55164139347046,5.617731122092781 37.05541848632547,7.162520317480201 37.05541848632547,9.064265551987232 C37.05541848632547,10.966010786494262 35.55164139347046,12.510799981881682 33.700384970499016,12.510799981881682 C31.84912854752757,12.510799981881682 30.345351454672556,10.966010786494262 30.345351454672556,9.064265551987232 C30.345351454672556,7.162520317480201 31.84912854752757,5.617731122092781 33.700384970499016,5.617731122092781 Z" transform="matrix(1,0,0,1,0,0)" fill="none" stroke="#192659"/>
	</g>
	<g transform="matrix(1,0,0,1,5.451362742,2.935349169)">
		<path d="M11.187919281389783,10.972764637919342 C11.187919281389783,10.972764637919342 17.89798631304277,10.972764637919344 17.89798631304277,10.972764637919344" transform="matrix(1,0,0,1,19.157432173,-1.908499086)" fill="none" stroke="#192659"/>
	</g>
	<g transform="matrix(1,0,0,1,5.451362742,2.935349169)">
		<path d="M11.187919281389783,10.972764637919342 C11.187919281389783,10.972764637919342 17.89798631304277,10.972764637919344 17.89798631304277,10.972764637919344" transform="matrix(0,1,-1,0,44.673149608,-5.478687245)" fill="none" stroke="#192659"/>
	</g>
	<g transform="matrix(1,0,0,1,5.451362742,2.935349169)">
		<path d="M21.548637258232176,26.97314991728785 C23.399893681203633,26.97314991728785 24.903670774058654,28.51793911267528 24.903670774058654,30.41968434718232 C24.903670774058654,32.32142958168936 23.399893681203633,33.86621877707679 21.548637258232176,33.86621877707679 C19.69738083526072,33.86621877707679 18.1936037424057,32.32142958168936 18.1936037424057,30.41968434718232 C18.1936037424057,28.51793911267528 19.69738083526072,26.97314991728785 21.548637258232176,26.97314991728785 Z" fill="none" stroke="#192659"/>
	</g>
	<g transform="matrix(1,0,0,1,5.451362742,2.935349169)">
		<path d="M11.187919281389783,10.972764637919342 C11.187919281389783,10.972764637919342 17.89798631304277,10.972764637919344 17.89798631304277,10.972764637919344" transform="matrix(1,0,0,1,7.005684461,19.446919709)" fill="none" stroke="#192659"/>
	</g>
	<g transform="matrix(1,0,0,1,5.451362742,2.935349169)">
		<path d="M11.187919281389783,10.972764637919342 C11.187919281389783,10.972764637919342 17.89798631304277,10.972764637919344 17.89798631304277,10.972764637919344" transform="matrix(0,1,-1,0,32.521401896,15.87673155)" fill="none" stroke="#192659"/>
	</g>
	<g transform="matrix(1,0,0,1,5.451362742,2.935349169)">
		<path d="M21.54863725823205,45.92110128546639 C23.399893681203498,45.92110128546639 24.90367077405851,47.465890480853815 24.90367077405851,49.36763571536085 C24.90367077405851,51.26938094986788 23.399893681203498,52.814170145255304 21.54863725823205,52.814170145255304 C19.6973808352606,52.814170145255304 18.193603742405585,51.26938094986788 18.193603742405585,49.36763571536085 C18.193603742405585,47.465890480853815 19.6973808352606,45.92110128546639 21.54863725823205,45.92110128546639 Z" transform="matrix(1,0,0,1,0,0)" fill="none" stroke="#192659"/>
	</g>
	<g transform="matrix(1,0,0,1,5.451362742,2.935349169)">
		<path d="M11.187919281389783,10.972764637919342 C11.187919281389783,10.972764637919342 17.89798631304277,10.972764637919344 17.89798631304277,10.972764637919344" transform="matrix(1,0,0,1,7.005684461,38.394871077)" fill="none" stroke="#192659"/>
	</g>
	<g transform="matrix(1,0,0,1,5.451362742,2.935349169)">
		<path d="M11.187919281389783,10.972764637919342 C11.187919281389783,10.972764637919342 17.89798631304277,10.972764637919344 17.89798631304277,10.972764637919344" transform="matrix(0,1,-1,0,32.521401896,34.824682918)" fill="none" stroke="#192659"/>
	</g>
	<g transform="matrix(1,0,0,1,5.451362742,2.935349169)">
		<path d="M16.749657671003014,17.564443626289908 C16.749657671003014,17.564443626289908 19.854398073555277,29.47303695114786 19.854398073555277,29.47303695114786 C19.854398073555277,29.47303695114786 25.04314230795767,26.28323516770376 25.04314230795767,26.28323516770376 C25.04314230795767,26.28323516770376 16.749657671003014,17.564443626289908 16.749657671003014,17.564443626289908 Z" transform="matrix(1,0,0,1,-5,-2)" fill="none" stroke="#192659"/>
	</g>
	<g transform="matrix(1,0,0,1,5.451362742,2.935349169)">
		<path d="M22.44877019075647,27.878136059425803 C22.44877019075647,27.878136059425803 16.74965767100301,17.5644436262899 16.74965767100301,17.5644436262899" transform="matrix(1,0,0,1,-5,-2)" fill="none" stroke="#192659"/>
	</g>
	<g transform="matrix(1,0,0,1,5.451362742,2.935349169)">
		<path d="M16.749657671003014,17.564443626289908 C16.749657671003014,17.564443626289908 19.854398073555277,29.47303695114786 19.854398073555277,29.47303695114786 C19.854398073555277,29.47303695114786 25.04314230795767,26.28323516770376 25.04314230795767,26.28323516770376 C25.04314230795767,26.28323516770376 16.749657671003014,17.564443626289908 16.749657671003014,17.564443626289908 Z" transform="matrix(-1,0,0,1,48.097274516,-1.822799093)" fill="none" stroke="#192659"/>
	</g>
	<g transform="matrix(1,0,0,1,5.451362742,2.935349169)">
		<path d="M22.44877019075647,27.878136059425803 C22.44877019075647,27.878136059425803 16.74965767100301,17.5644436262899 16.74965767100301,17.5644436262899" transform="matrix(-1,0,0,1,48.097274516,-1.822799093)" fill="none" stroke="#192659"/>
	</g>
	<g transform="matrix(1,0,0,1,5.451362742,2.935349169)">
		<path d="M26.54863725823217,37.72399089765658 C26.54863725823217,37.72399089765658 23.639629523242267,45.54963793970609 23.639629523242267,45.54963793970609 C23.639629523242267,45.54963793970609 29.42380342388756,45.54963793970609 29.42380342388756,45.54963793970609 C29.42380342388756,45.54963793970609 26.54863725823217,37.72399089765658 26.54863725823217,37.72399089765658 Z" transform="matrix(1,0,0,0.951086957,-5,0.227971421)" fill="none" stroke="#192659"/>
	</g>
	<g transform="matrix(1,0,0,1,5.451362742,2.935349169)">
		<path d="" transform="matrix(1,0,0,1,-3,-2)" fill="none" stroke="#000000" stroke-width="2"/>
	</g>
	<g transform="matrix(1,0,0,1,5.451362742,2.935349169)">
		<path d="M26.531716473564902,38.10676711166987 C26.531716473564902,38.10676711166987 26.531716473564895,45.54968793970609 26.531716473564895,45.54968793970609" transform="matrix(1,0,0,1,-5,-2)" fill="none" stroke="#192659"/>
	</g>
	<g transform="matrix(1,0,0,1,5.451362742,2.935349169)">
		<path d="M41.62753220075481,22.32431956699547 C52.33434275760001,22.32431956699547 61.03149365098025,31.168175003288297 61.03149365098025,42.05558927370011 C61.03149365098025,52.94300354411192 52.33434275760001,61.786858980404745 41.62753220075481,61.786858980404745 C30.9207216439096,61.786858980404745 22.223570750529362,52.94300354411192 22.223570750529362,42.05558927370011 C22.223570750529362,31.168175003288297 30.9207216439096,22.32431956699547 41.62753220075481,22.32431956699547 Z" fill="#192659"/>
	</g>
	<g transform="matrix(1,0,0,1,5.451362742,2.935349169)">
		<g transform="matrix(1.211302038,0,0,1.211302038,-13.662964398,-4.128420546)">
			<path d="M53.416198480409115,38.397377125713696 C53.416198480409115,40.56204070955257 52.556289219920366,42.63804530863474 51.02564092080033,44.168693607754776 C49.49499262168029,45.69934190687482 47.41898802259812,46.55925116736357 45.254324438759255,46.55925116736357 C43.08966085492039,46.55925116736357 41.01365625583823,45.699341906874814 39.48300795671818,44.168693607754776 C37.952359657598144,42.63804530863474 37.092450397109396,40.56204070955257 37.092450397109396,38.397377125713696 C37.092450397109396,36.23271354187482 37.952359657598144,34.156708942792655 39.48300795671818,32.626060643672616 C41.01365625583822,31.095412344552575 43.08966085492038,30.235503084063822 45.254324438759255,30.235503084063822" transform="matrix(1,0,0,1,0,0)" fill="none" stroke="#fefefe" stroke-width="6"/>
		</g>
		<g transform="matrix(1.211302038,0,0,1.211302038,-13.662964398,-4.128420546)">
			<path d="M44.34763682359257,23.764172446677964 C44.34763682359257,23.764172446677964 55.6437598945112,30.285992142471972 55.6437598945112,30.285992142471972 C55.6437598945112,30.285992142471972 44.34763682359258,36.807811838265984 44.34763682359258,36.807811838265984 C44.34763682359258,36.807811838265984 44.34763682359257,23.764172446677964 44.34763682359257,23.764172446677964 Z" fill="#fefefe"/>
		</g>
	</g>
</g></g></svg>